<svg version="1.1" id="Layer_1" xmlns="http://www.w3.org/2000/svg" xmlns:xlink="http://www.w3.org/1999/xlink" x="0px" y="0px"
	 width="100%" viewBox="0 0 304 432" enable-background="new 0 0 304 432" xml:space="preserve">
<path fill="#000000" opacity="1.000000" stroke="none" 
	d="
M202.999908,413.363892 
	C165.667114,413.359192 128.834274,413.398926 92.001595,413.335266 
	C60.887363,413.281494 38.924541,390.088470 40.773041,358.949860 
	C41.480370,347.034515 46.650822,336.816528 55.056492,328.372742 
	C71.990334,311.362061 90.087067,295.591522 107.686913,279.290894 
	C118.182854,269.569702 128.652634,259.820282 139.574417,249.674591 
	C132.784988,243.417480 126.228584,237.382462 119.680252,231.338699 
	C106.317017,219.005142 92.998352,206.616608 83.835594,190.602997 
	C65.907524,159.270355 65.976562,127.637901 83.818985,96.548019 
	C98.762299,70.509781 121.190750,51.711029 146.340179,35.935825 
	C152.262085,32.221260 157.991562,31.784582 164.132629,35.562805 
	C191.018982,52.104321 215.181702,71.633217 230.061569,100.145500 
	C248.459869,135.399704 244.395401,169.262894 221.238205,201.099380 
	C210.079926,216.439804 195.646805,228.640732 181.757797,241.342636 
	C178.949707,243.910690 176.215302,246.559311 173.658997,248.970734 
	C178.470062,254.052795 182.773148,259.095917 187.584991,263.594910 
	C208.274231,282.938934 229.133698,302.100769 249.888229,321.375153 
	C259.938660,330.708862 268.086609,341.096680 270.538300,355.243225 
	C274.694122,379.222717 259.507874,403.962189 236.243942,411.036957 
	C225.418777,414.328949 214.437866,412.983459 202.999908,413.363892 
M174.245682,281.264435 
	C169.725983,277.078705 164.939850,273.139526 160.768219,268.631714 
	C157.229477,264.807770 154.560303,265.444489 151.295227,268.727173 
	C146.717728,273.329285 141.961594,277.757080 137.208725,282.180817 
	C115.398735,302.480499 93.404297,322.585663 71.816490,343.118530 
	C63.376125,351.146423 60.165890,361.270996 64.515388,372.698273 
	C69.087029,384.709076 78.337837,391.385986 90.867508,391.502319 
	C134.328857,391.905914 177.797760,391.872650 221.260574,391.558929 
	C238.905411,391.431580 252.239349,374.344788 248.591675,357.809204 
	C247.008987,350.634491 242.730530,345.238922 237.540787,340.389771 
	C216.616531,320.838593 195.690552,301.289215 174.245682,281.264435 
M93.993042,130.416382 
	C93.265617,133.997055 92.407982,137.540573 92.306183,141.237503 
	C91.861755,157.376236 97.128441,171.738480 106.428619,184.579086 
	C119.727211,202.940247 137.281540,217.155304 153.952591,232.210815 
	C156.001114,234.060822 157.551483,233.179489 159.155151,231.766220 
	C162.652100,228.684433 166.192505,225.647659 169.597122,222.466202 
	C182.232300,210.659103 195.520493,199.487518 205.457001,185.073471 
	C222.475616,160.385986 224.481171,134.625565 209.520966,108.590950 
	C197.349609,87.409645 179.879852,71.113548 158.656616,58.880722 
	C156.320389,57.534138 154.744888,58.092171 152.756042,59.227257 
	C136.920700,68.264900 123.682854,80.332581 112.274071,94.398682 
	C103.819923,104.821960 97.127190,116.284523 93.993042,130.416382 
z"/>
</svg>